<svg width="12" height="12" viewBox="0 0 12 12" fill="none" xmlns="http://www.w3.org/2000/svg">
<g opacity="0.7">
<path d="M3.41264 11.9633C3.50387 11.9632 3.59418 11.945 3.67829 11.9097C3.7624 11.8743 3.83863 11.8226 3.90252 11.7575L9.09994 6.49197C9.23007 6.35951 9.30298 6.18124 9.30298 5.99556C9.30298 5.80987 9.23007 5.63161 9.09994 5.49914L3.90252 0.232556C3.83862 0.16746 3.76239 0.115753 3.67828 0.0804552C3.59416 0.0451575 3.50386 0.0269775 3.41264 0.0269775C3.32142 0.0269775 3.23112 0.0451575 3.14701 0.0804552C3.06289 0.115753 2.98666 0.16746 2.92276 0.232556C2.79263 0.365018 2.71972 0.543281 2.71972 0.728968C2.71972 0.914655 2.79263 1.09292 2.92276 1.22538L7.62923 5.99573L2.92276 10.7647C2.79263 10.8971 2.71972 11.0754 2.71972 11.2611C2.71972 11.4468 2.79263 11.625 2.92276 11.7575C2.98666 11.8226 3.06289 11.8743 3.147 11.9097C3.23111 11.945 3.32141 11.9632 3.41264 11.9633Z" fill="#333333"/>
</g>
</svg>
