<svg width="60" height="60" viewBox="0 0 60 60" fill="none" xmlns="http://www.w3.org/2000/svg">
<path d="M9.02344 16.6282C13.4447 9.69551 21.2027 5.09766 30.0348 5.09766C39.6694 5.09766 48.026 10.5691 52.1671 18.5742H30.0348C24.9102 18.5742 20.5737 21.9479 19.1249 26.5954L9.02344 16.6282Z" fill="#DD5044"/>
<path d="M28.9939 54.881L29.0218 54.823L28.9884 54.8808L28.9568 54.8794L32.537 41.1509C37.6438 40.0099 41.4605 35.4507 41.4605 30C41.4605 23.6977 36.3579 18.5871 30.0585 18.5742H52.167C53.9372 21.9963 54.9371 25.8814 54.9371 30C54.9371 43.7532 43.7879 54.9023 30.0347 54.9023C29.6861 54.9023 29.3391 54.8952 28.9939 54.881Z" fill="#FFCD41"/>
<path d="M28.8269 54.8735C15.6347 54.2434 5.13257 43.3482 5.13257 30C5.13257 25.8923 6.12714 22.0168 7.88864 18.6013L8.88708 16.8446C8.9322 16.7722 8.97767 16.7001 9.02354 16.6282L19.125 26.5953C18.7897 27.6707 18.6091 28.8143 18.6091 30C18.6091 36.3103 23.7246 41.4258 30.0349 41.4258C30.8945 41.4258 31.7319 41.3308 32.5373 41.1509L29.0921 54.3611L28.9454 54.7851L28.8269 54.8735Z" fill="#17A05D"/>
<path d="M28.9892 54.8798L28.9573 54.8784L32.5358 41.1565C35.6864 40.4601 38.3483 38.4632 39.9299 35.7577L40.0045 35.8008L28.9892 54.8798ZM9.04541 16.6312L9.04734 16.6282L19.1488 26.5953C18.8136 27.6707 18.6329 28.8143 18.6329 30C18.6329 32.0996 19.1993 34.067 20.1875 35.7577L20.1129 35.8008L9.04541 16.6312ZM52.1909 18.5742L52.193 18.5781L38.5333 22.3363C36.4426 20.0258 33.4202 18.5742 30.0587 18.5742H52.1909Z" fill="black" fill-opacity="0.1"/>
<path d="M18.6091 30C18.6091 31.5005 18.9047 32.9862 19.4789 34.3725C20.0531 35.7587 20.8947 37.0183 21.9557 38.0792C23.0166 39.1402 24.2762 39.9818 25.6625 40.556C27.0487 41.1302 28.5345 41.4258 30.0349 41.4258C31.5354 41.4258 33.0211 41.1302 34.4074 40.556C35.7936 39.9818 37.0532 39.1402 38.1142 38.0792C39.1751 37.0183 40.0168 35.7587 40.591 34.3725C41.1652 32.9862 41.4607 31.5005 41.4607 30C41.4607 28.4995 41.1652 27.0138 40.591 25.6275C40.0168 24.2413 39.1751 22.9817 38.1142 21.9208C37.0532 20.8598 35.7936 20.0182 34.4074 19.444C33.0211 18.8698 31.5354 18.5742 30.0349 18.5742C28.5345 18.5742 27.0487 18.8698 25.6625 19.444C24.2762 20.0182 23.0166 20.8598 21.9557 21.9208C20.8947 22.9817 20.0531 24.2413 19.4789 25.6275C18.9047 27.0138 18.6091 28.4995 18.6091 30Z" fill="white"/>
<path d="M20.9529 30C20.9529 31.1927 21.1878 32.3737 21.6442 33.4755C22.1006 34.5774 22.7696 35.5786 23.6129 36.422C24.4563 37.2653 25.4575 37.9343 26.5594 38.3907C27.6613 38.8471 28.8422 39.082 30.0349 39.082C31.2276 39.082 32.4086 38.8471 33.5105 38.3907C34.6123 37.9343 35.6135 37.2653 36.4569 36.422C37.3002 35.5786 37.9692 34.5774 38.4256 33.4755C38.882 32.3737 39.1169 31.1927 39.1169 30C39.1169 28.8073 38.882 27.6263 38.4256 26.5245C37.9692 25.4226 37.3002 24.4214 36.4569 23.578C35.6135 22.7347 34.6123 22.0657 33.5105 21.6093C32.4086 21.1529 31.2276 20.918 30.0349 20.918C28.8422 20.918 27.6613 21.1529 26.5594 21.6093C25.4575 22.0657 24.4563 22.7347 23.6129 23.578C22.7696 24.4214 22.1006 25.4226 21.6442 26.5245C21.1878 27.6263 20.9529 28.8073 20.9529 30Z" fill="#4A8AF4"/>
</svg>
