<svg width="30" height="13" viewBox="0 0 30 13" fill="none" xmlns="http://www.w3.org/2000/svg">
<path d="M0 6C0 2.68629 2.68629 0 6 0H24C27.3137 0 30 2.68629 30 6V7C30 10.3137 27.3137 13 24 13H1C0.447716 13 0 12.5523 0 12V6Z" fill="url(#paint0_linear_46_18)"/>
<path d="M25.2046 10H23.5146L22.1146 5.21001H22.0846L20.6846 10H18.9846L16.9746 2.92001H18.8146L19.9346 7.63001H19.9646L21.2246 2.92001H23.0046L24.2746 7.63001H24.3046L25.4446 2.92001H27.2246L25.2046 10Z" fill="white"/>
<path d="M11.6304 10V2.92001H16.3904V4.37001H13.2804V5.70001H16.2204V7.07001H13.2804V8.54001H16.5704V10H11.6304Z" fill="white"/>
<path d="M8.22998 10L5.37998 5.37001H5.34998L5.38998 10H3.72998V2.92001H5.67998L8.51998 7.54001H8.54998L8.50998 2.92001H10.17V10H8.22998Z" fill="white"/>
<defs>
<linearGradient id="paint0_linear_46_18" x1="0.937499" y1="1.348e-06" x2="30.7004" y2="8.12803" gradientUnits="userSpaceOnUse">
<stop stop-color="#6321FF"/>
<stop offset="1" stop-color="#F831FF"/>
</linearGradient>
</defs>
</svg>
