<svg width="24" height="24" viewBox="0 0 24 24" fill="none" xmlns="http://www.w3.org/2000/svg">
<rect width="24" height="24" rx="5" fill="#5915E1"/>
<path d="M6.94989 15.9538C6.71462 15.954 6.48567 16.03 6.29689 16.1704C6.1081 16.3108 5.96949 16.5082 5.90153 16.7334L5.42174 18.3024C5.41848 18.3238 5.41848 18.3457 5.42174 18.3672C5.42174 18.4251 5.44474 18.4806 5.48568 18.5215C5.52662 18.5625 5.58214 18.5855 5.64004 18.5855C5.66152 18.5886 5.68334 18.5886 5.70482 18.5855L7.27375 18.1057C7.52478 18.0289 7.73992 17.8645 7.88005 17.6425C8.02018 17.4205 8.07601 17.1556 8.03738 16.896C7.99875 16.6363 7.86823 16.3991 7.66954 16.2276C7.47086 16.056 7.21721 15.9614 6.95469 15.961L6.94989 15.9538ZM18.3427 5C11.8654 5 10.4716 8.3226 9.42564 8.96313C7.78474 9.05669 6.08626 9.89394 5.12186 11.247C5.05734 11.3376 5.01687 11.4431 5.00425 11.5536C4.99162 11.6642 5.00726 11.7761 5.04969 11.8789C5.09212 11.9818 5.15995 12.0721 5.24684 12.1416C5.33373 12.2111 5.43683 12.2574 5.54648 12.2761C6.27675 12.4087 6.97922 12.6642 7.62401 13.0318C7.50406 13.4684 7.4081 13.893 7.33853 14.2913C7.32028 14.3952 7.32732 14.502 7.35906 14.6026C7.39079 14.7033 7.44629 14.7948 7.52085 14.8694L9.13057 16.4792C9.19165 16.5403 9.26422 16.5887 9.34409 16.6216C9.42397 16.6546 9.50957 16.6714 9.59597 16.6711C9.63348 16.6745 9.67122 16.6745 9.70872 16.6711C10.107 16.6015 10.5316 16.5055 10.9682 16.3856C11.3329 17.0278 11.5867 17.7269 11.7191 18.4535C11.7378 18.5632 11.7841 18.6663 11.8536 18.7532C11.9231 18.84 12.0134 18.9079 12.1163 18.9503C12.2191 18.9927 12.331 19.0084 12.4416 18.9958C12.5521 18.9831 12.6576 18.9427 12.7482 18.8781C14.0989 17.9185 14.9313 16.2153 15.0297 14.5744C17.2895 12.3193 18.9424 10.1218 19 5.65733C19.0003 5.57092 18.9835 5.4853 18.9506 5.40541C18.9177 5.32551 18.8693 5.25292 18.8082 5.19182C18.7471 5.13072 18.6745 5.08232 18.5946 5.04939C18.5147 5.01647 18.4291 4.99969 18.3427 5ZM14.677 10.5321C14.4037 10.5321 14.1366 10.451 13.9093 10.2992C13.6821 10.1474 13.505 9.93154 13.4004 9.67905C13.2958 9.42655 13.2684 9.14872 13.3218 8.88067C13.3751 8.61263 13.5067 8.36641 13.6999 8.17316C13.8932 7.97991 14.1394 7.8483 14.4074 7.79499C14.6755 7.74167 14.9533 7.76903 15.2058 7.87362C15.4583 7.97821 15.6741 8.15532 15.826 8.38255C15.9778 8.60979 16.0588 8.87695 16.0588 9.15025C16.0588 9.51673 15.9133 9.8682 15.6541 10.1273C15.395 10.3865 15.0435 10.5321 14.677 10.5321Z" fill="white"/>
</svg>
