<svg width="24" height="24" viewBox="0 0 24 24" fill="none" xmlns="http://www.w3.org/2000/svg">
<g id="Swap-BTT-G">
<g id="SUN">
<rect id="Rectangle Copy 3" width="24" height="24" rx="5" fill="#C1C1C1"/>
<g id="SUN-&#233;&#161;&#185;&#231;&#155;&#174;logo">
<g id="Group 15">
<g id="Group 14">
<circle id="Mask" cx="12.03" cy="12.03" r="9.03" fill="white"/>
<mask id="mask0_1_61" style="mask-type:luminance" maskUnits="userSpaceOnUse" x="3" y="3" width="19" height="19">
<circle id="Mask_2" cx="12.03" cy="12.03" r="9.03" fill="white"/>
</mask>
<g mask="url(#mask0_1_61)">
<g id="Group 14_2">
<g id="Group 13">
<g id="Group 12">
<path id="Path 9" d="M11.8415 0.844452V7.13632" stroke="#C1C1C1" stroke-width="0.227912"/>
<path id="Path 9 Copy" d="M10.9093 0.844452V7.13632" stroke="#C1C1C1" stroke-width="0.227912"/>
<path id="Path 9 Copy 2" d="M13.0649 0.844452V7.13632" stroke="#C1C1C1" stroke-width="0.227912"/>
<path id="Path 10" d="M7.89368 2.07008L9.93374 5.8752V1.54355" stroke="#C1C1C1" stroke-width="0.227912"/>
<path id="Path 10 Copy" d="M16.0508 1.95357L14.0108 5.75868V1.42703" stroke="#C1C1C1" stroke-width="0.227912"/>
</g>
<g id="Group 12 Copy">
<path id="Path 9_2" d="M12.1603 24.0312V17.7393" stroke="#C1C1C1" stroke-width="0.227912"/>
<path id="Path 9 Copy_2" d="M13.0924 24.0312V17.7393" stroke="#C1C1C1" stroke-width="0.227912"/>
<path id="Path 9 Copy 2_2" d="M10.9368 24.0312V17.7393" stroke="#C1C1C1" stroke-width="0.227912"/>
<path id="Path 10_2" d="M16.1674 22.8843L14.1273 19.0792V23.4109" stroke="#C1C1C1" stroke-width="0.227912"/>
<path id="Path 10 Copy_2" d="M7.89368 22.9426L9.93374 19.1375V23.4691" stroke="#C1C1C1" stroke-width="0.227912"/>
</g>
</g>
<g id="Group 13 Copy">
<g id="Group 12_2">
<path id="Path 9_3" d="M0.407532 12.5972H6.6994" stroke="#C1C1C1" stroke-width="0.227912"/>
<path id="Path 9 Copy_3" d="M0.407532 13.5293H6.6994" stroke="#C1C1C1" stroke-width="0.227912"/>
<path id="Path 9 Copy 2_3" d="M0.407532 11.3738H6.6994" stroke="#C1C1C1" stroke-width="0.227912"/>
<path id="Path 10_3" d="M1.48753 16.5752L5.29265 14.5351H0.960999" stroke="#C1C1C1" stroke-width="0.227912"/>
<path id="Path 10 Copy_3" d="M1.89531 8.53452L5.70042 10.5746H1.36877" stroke="#C1C1C1" stroke-width="0.227912"/>
</g>
<g id="Group 12 Copy_2">
<path id="Path 9_4" d="M23.5942 12.2784H17.3024" stroke="#C1C1C1" stroke-width="0.227912"/>
<path id="Path 9 Copy_4" d="M23.5942 11.3463H17.3024" stroke="#C1C1C1" stroke-width="0.227912"/>
<path id="Path 9 Copy 2_4" d="M23.5942 13.5018H17.3024" stroke="#C1C1C1" stroke-width="0.227912"/>
<path id="Path 10_4" d="M22.3018 8.30148L18.4967 10.3416H22.8283" stroke="#C1C1C1" stroke-width="0.227912"/>
<path id="Path 10 Copy_4" d="M22.5348 16.5169L18.7297 14.4768H23.0613" stroke="#C1C1C1" stroke-width="0.227912"/>
</g>
</g>
<g id="Group 13 Copy 2">
<g id="Group 12_3">
<path id="Path 9_5" d="M3.91588 20.7483L8.3649 16.2993" stroke="#C1C1C1" stroke-width="0.227912"/>
<path id="Path 9 Copy_5" d="M4.575 21.4074L9.02402 16.9584" stroke="#C1C1C1" stroke-width="0.227912"/>
<path id="Path 9 Copy 2_5" d="M3.05077 19.8832L7.49979 15.4342" stroke="#C1C1C1" stroke-width="0.227912"/>
<path id="Path 10_5" d="M7.72779 22.8046L8.97586 18.6714L5.91292 21.7344" stroke="#C1C1C1" stroke-width="0.227912"/>
<path id="Path 10 Copy_5" d="M1.68286 16.8179L5.81603 15.5698L2.75309 18.6328" stroke="#C1C1C1" stroke-width="0.227912"/>
</g>
<g id="Group 12 Copy_3">
<path id="Path 9_6" d="M20.0859 4.12735L15.6369 8.57637" stroke="#C1C1C1" stroke-width="0.227912"/>
<path id="Path 9 Copy_6" d="M19.4268 3.46823L14.9777 7.91726" stroke="#C1C1C1" stroke-width="0.227912"/>
<path id="Path 9 Copy 2_6" d="M20.951 4.99243L16.502 9.44146" stroke="#C1C1C1" stroke-width="0.227912"/>
<path id="Path 10_6" d="M16.4101 2.20716L15.162 6.34032L18.225 3.27738" stroke="#C1C1C1" stroke-width="0.227912"/>
<path id="Path 10 Copy_6" d="M22.2803 7.9608L18.1471 9.20888L21.21 6.14594" stroke="#C1C1C1" stroke-width="0.227912"/>
</g>
</g>
<g id="Group 13 Copy 3">
<g id="Group 12_4">
<path id="Path 9_7" d="M20.3113 20.5228L15.8623 16.0738" stroke="#C1C1C1" stroke-width="0.227912"/>
<path id="Path 9 Copy_7" d="M20.9704 19.8637L16.5214 15.4147" stroke="#C1C1C1" stroke-width="0.227912"/>
<path id="Path 9 Copy 2_7" d="M19.4463 21.3879L14.9972 16.9389" stroke="#C1C1C1" stroke-width="0.227912"/>
<path id="Path 10_7" d="M22.3968 16.8179L18.2636 15.5698L21.3266 18.6328" stroke="#C1C1C1" stroke-width="0.227912"/>
<path id="Path 10 Copy_7" d="M16.4684 22.7463L15.2203 18.6132L18.2832 21.6761" stroke="#C1C1C1" stroke-width="0.227912"/>
</g>
<g id="Group 12 Copy_4">
<path id="Path 9_8" d="M3.69044 4.3528L8.13947 8.80182" stroke="#C1C1C1" stroke-width="0.227912"/>
<path id="Path 9 Copy_8" d="M3.03133 5.01192L7.48035 9.46094" stroke="#C1C1C1" stroke-width="0.227912"/>
<path id="Path 9 Copy 2_8" d="M4.5555 3.4877L9.00452 7.93673" stroke="#C1C1C1" stroke-width="0.227912"/>
<path id="Path 10_8" d="M1.97412 8.25209L6.10729 9.50017L3.04435 6.43723" stroke="#C1C1C1" stroke-width="0.227912"/>
<path id="Path 10 Copy_8" d="M7.6695 2.38194L8.91757 6.51511L5.85463 3.45217" stroke="#C1C1C1" stroke-width="0.227912"/>
</g>
</g>
</g>
</g>
</g>
<g id="Group 839">
<ellipse id="&#230;&#164;&#173;&#229;&#156;&#134;&#229;&#189;&#162;" cx="11.9711" cy="12.4666" rx="6.00169" ry="6.03" fill="white" stroke="#C1C1C1" stroke-width="0.2"/>
<g id="Clipped">
<mask id="mask1_1_61" style="mask-type:luminance" maskUnits="userSpaceOnUse" x="6" y="6" width="13" height="13">
<ellipse id="&#230;&#164;&#173;&#229;&#156;&#134;&#229;&#189;&#162;_2" cx="12.0278" cy="12.4666" rx="6.00169" ry="6.03" fill="white"/>
</mask>
<g mask="url(#mask1_1_61)">
<path id="&#232;&#183;&#175;&#229;&#190;&#132;" fill-rule="evenodd" clip-rule="evenodd" d="M12.3113 6.17067L11.5174 12.5806H12.3113L11.9994 18.4929L17.7856 17.4522L18.8354 9.33522L16.2854 7.0823L12.3113 6.17067Z" fill="#C1C1C1"/>
</g>
</g>
</g>
<g id="Group 842">
<g id="Group 840">
<path id="&#232;&#183;&#175;&#229;&#190;&#132;_2" d="M6.51962 11.1716C6.6551 12.275 7.37292 13.423 8.47604 13.2876C12.22 12.8279 11.694 10.422 11.6435 9.64275C11.9145 11.8496 13.5906 12.6596 16.3986 12.3148C17.2342 12.2122 17.5766 10.5789 17.4841 9.82529C17.3684 8.88336 14.8745 8.74565 11.7657 9.12736C8.6568 9.50907 6.35026 9.79228 6.51962 11.1716Z" fill="#ACACAC" stroke="#ACACAC" stroke-width="0.8" stroke-linecap="round" stroke-linejoin="round"/>
<path id="&#232;&#183;&#175;&#229;&#190;&#132;_3" d="M13.4354 11.7949C12.423 11.4125 12.0199 10.3982 11.9449 9.93879C11.9449 9.32006 12.648 9.2357 14.3635 9.2357C16.0791 9.2357 17.1196 9.37632 17.204 9.8263C17.2884 10.6138 17.0072 11.7949 16.6134 11.9918C16.2197 12.1887 14.701 12.2731 13.4354 11.7949Z" fill="#C1C1C1" stroke="#C1C1C1" stroke-width="0.112838"/>
<path id="&#232;&#183;&#175;&#229;&#190;&#132;_4" d="M10.4576 12.3225C11.27 11.787 11.6919 10.7544 11.4388 9.8826C11.2947 9.38604 10.5031 9.50782 9.02017 9.74198C7.69835 9.95068 6.6859 10.5294 6.7984 11.0357C6.85461 11.8651 7.49445 12.7411 7.86709 12.8918C8.23974 13.0426 9.44202 12.9918 10.4576 12.3225Z" fill="#C1C1C1" stroke="#C1C1C1" stroke-width="0.112838"/>
</g>
<path id="&#232;&#183;&#175;&#229;&#190;&#132;_5" d="M17.6463 7.25217L18.1412 8.58957L19.4785 9.08444L18.1412 9.57931L17.6463 10.9167L17.1514 9.57931L15.814 9.08444L17.1514 8.58957L17.6463 7.25217Z" fill="white"/>
<g id="Group 841">
<path id="&#232;&#183;&#175;&#229;&#190;&#132;_6" d="M12.2135 16.0078C13.56 15.8979 14.5701 14.8109 14.4697 13.5798L9.59351 13.9776C9.69395 15.2087 10.8669 16.1177 12.2135 16.0078Z" fill="white" stroke="#ACACAC" stroke-width="0.2" stroke-linejoin="round"/>
<path id="&#232;&#183;&#175;&#229;&#190;&#132;_7" d="M12.8449 14.683H14.1804" stroke="#ACACAC" stroke-width="0.2" stroke-linecap="round" stroke-linejoin="round"/>
</g>
</g>
</g>
</g>
</g>
</g>
</svg>
