<svg width="25" height="24" viewBox="0 0 25 24" fill="none" xmlns="http://www.w3.org/2000/svg">
<g id="Swap-BTT-G">
<g id="SUN">
<rect id="Rectangle Copy 3" x="0.0455322" width="24" height="24" rx="5" fill="#5915E1"/>
<g id="SUN-&#233;&#161;&#185;&#231;&#155;&#174;logo">
<g id="Group 15">
<g id="Group 14">
<circle id="Mask" cx="12.0755" cy="12.03" r="9.03" fill="white"/>
<mask id="mask0_13_230" style="mask-type:luminance" maskUnits="userSpaceOnUse" x="3" y="3" width="19" height="19">
<circle id="Mask_2" cx="12.0755" cy="12.03" r="9.03" fill="white"/>
</mask>
<g mask="url(#mask0_13_230)">
<g id="Group 14_2">
<g id="Group 13">
<g id="Group 12">
<path id="Path 9" d="M11.887 0.844452V7.13632" stroke="#C1C1C1" stroke-width="0.227912"/>
<path id="Path 9 Copy" d="M10.9549 0.844452V7.13632" stroke="#C1C1C1" stroke-width="0.227912"/>
<path id="Path 9 Copy 2" d="M13.1104 0.844452V7.13632" stroke="#C1C1C1" stroke-width="0.227912"/>
<path id="Path 10" d="M7.93921 2.07008L9.97928 5.8752V1.54355" stroke="#C1C1C1" stroke-width="0.227912"/>
<path id="Path 10 Copy" d="M16.0964 1.95357L14.0563 5.75868V1.42703" stroke="#C1C1C1" stroke-width="0.227912"/>
</g>
<g id="Group 12 Copy">
<path id="Path 9_2" d="M12.2058 24.0312V17.7393" stroke="#C1C1C1" stroke-width="0.227912"/>
<path id="Path 9 Copy_2" d="M13.138 24.0312V17.7393" stroke="#C1C1C1" stroke-width="0.227912"/>
<path id="Path 9 Copy 2_2" d="M10.9824 24.0312V17.7393" stroke="#C1C1C1" stroke-width="0.227912"/>
<path id="Path 10_2" d="M16.2129 22.8843L14.1728 19.0792V23.4109" stroke="#C1C1C1" stroke-width="0.227912"/>
<path id="Path 10 Copy_2" d="M7.93921 22.9426L9.97928 19.1375V23.4691" stroke="#C1C1C1" stroke-width="0.227912"/>
</g>
</g>
<g id="Group 13 Copy">
<g id="Group 12_2">
<path id="Path 9_3" d="M0.453064 12.5972H6.74494" stroke="#C1C1C1" stroke-width="0.227912"/>
<path id="Path 9 Copy_3" d="M0.453064 13.5293H6.74494" stroke="#C1C1C1" stroke-width="0.227912"/>
<path id="Path 9 Copy 2_3" d="M0.453064 11.3738H6.74494" stroke="#C1C1C1" stroke-width="0.227912"/>
<path id="Path 10_3" d="M1.53307 16.5752L5.33818 14.5351H1.00653" stroke="#C1C1C1" stroke-width="0.227912"/>
<path id="Path 10 Copy_3" d="M1.94084 8.53452L5.74595 10.5746H1.41431" stroke="#C1C1C1" stroke-width="0.227912"/>
</g>
<g id="Group 12 Copy_2">
<path id="Path 9_4" d="M23.6398 12.2784H17.3479" stroke="#C1C1C1" stroke-width="0.227912"/>
<path id="Path 9 Copy_4" d="M23.6398 11.3463H17.3479" stroke="#C1C1C1" stroke-width="0.227912"/>
<path id="Path 9 Copy 2_4" d="M23.6398 13.5018H17.3479" stroke="#C1C1C1" stroke-width="0.227912"/>
<path id="Path 10_4" d="M22.3473 8.30148L18.5422 10.3416H22.8738" stroke="#C1C1C1" stroke-width="0.227912"/>
<path id="Path 10 Copy_4" d="M22.5803 16.5169L18.7752 14.4768H23.1069" stroke="#C1C1C1" stroke-width="0.227912"/>
</g>
</g>
<g id="Group 13 Copy 2">
<g id="Group 12_3">
<path id="Path 9_5" d="M3.96141 20.7483L8.41044 16.2993" stroke="#C1C1C1" stroke-width="0.227912"/>
<path id="Path 9 Copy_5" d="M4.62053 21.4074L9.06955 16.9584" stroke="#C1C1C1" stroke-width="0.227912"/>
<path id="Path 9 Copy 2_5" d="M3.0963 19.8832L7.54532 15.4342" stroke="#C1C1C1" stroke-width="0.227912"/>
<path id="Path 10_5" d="M7.77332 22.8046L9.02139 18.6714L5.95845 21.7344" stroke="#C1C1C1" stroke-width="0.227912"/>
<path id="Path 10 Copy_5" d="M1.7284 16.8179L5.86156 15.5698L2.79863 18.6328" stroke="#C1C1C1" stroke-width="0.227912"/>
</g>
<g id="Group 12 Copy_3">
<path id="Path 9_6" d="M20.1314 4.12735L15.6824 8.57637" stroke="#C1C1C1" stroke-width="0.227912"/>
<path id="Path 9 Copy_6" d="M19.4723 3.46823L15.0233 7.91726" stroke="#C1C1C1" stroke-width="0.227912"/>
<path id="Path 9 Copy 2_6" d="M20.9965 4.99243L16.5475 9.44146" stroke="#C1C1C1" stroke-width="0.227912"/>
<path id="Path 10_6" d="M16.4556 2.20716L15.2076 6.34032L18.2705 3.27738" stroke="#C1C1C1" stroke-width="0.227912"/>
<path id="Path 10 Copy_6" d="M22.3258 7.9608L18.1926 9.20888L21.2556 6.14594" stroke="#C1C1C1" stroke-width="0.227912"/>
</g>
</g>
<g id="Group 13 Copy 3">
<g id="Group 12_4">
<path id="Path 9_7" d="M20.3569 20.5228L15.9078 16.0738" stroke="#C1C1C1" stroke-width="0.227912"/>
<path id="Path 9 Copy_7" d="M21.016 19.8637L16.567 15.4147" stroke="#C1C1C1" stroke-width="0.227912"/>
<path id="Path 9 Copy 2_7" d="M19.4918 21.3879L15.0428 16.9389" stroke="#C1C1C1" stroke-width="0.227912"/>
<path id="Path 10_7" d="M22.4423 16.8179L18.3092 15.5698L21.3721 18.6328" stroke="#C1C1C1" stroke-width="0.227912"/>
<path id="Path 10 Copy_7" d="M16.5139 22.7463L15.2658 18.6132L18.3288 21.6761" stroke="#C1C1C1" stroke-width="0.227912"/>
</g>
<g id="Group 12 Copy_4">
<path id="Path 9_8" d="M3.73598 4.3528L8.185 8.80182" stroke="#C1C1C1" stroke-width="0.227912"/>
<path id="Path 9 Copy_8" d="M3.07686 5.01192L7.52588 9.46094" stroke="#C1C1C1" stroke-width="0.227912"/>
<path id="Path 9 Copy 2_8" d="M4.60103 3.4877L9.05005 7.93673" stroke="#C1C1C1" stroke-width="0.227912"/>
<path id="Path 10_8" d="M2.01966 8.25209L6.15282 9.50017L3.08988 6.43723" stroke="#C1C1C1" stroke-width="0.227912"/>
<path id="Path 10 Copy_8" d="M7.71503 2.38194L8.9631 6.51511L5.90017 3.45217" stroke="#C1C1C1" stroke-width="0.227912"/>
</g>
</g>
</g>
</g>
</g>
<g id="Group 839">
<ellipse id="&#230;&#164;&#173;&#229;&#156;&#134;&#229;&#189;&#162;" cx="12.0166" cy="12.4666" rx="6.00169" ry="6.03" fill="white" stroke="#C1C1C1" stroke-width="0.2"/>
<g id="Clipped">
<mask id="mask1_13_230" style="mask-type:luminance" maskUnits="userSpaceOnUse" x="6" y="6" width="13" height="13">
<ellipse id="&#230;&#164;&#173;&#229;&#156;&#134;&#229;&#189;&#162;_2" cx="12.0733" cy="12.4666" rx="6.00169" ry="6.03" fill="white"/>
</mask>
<g mask="url(#mask1_13_230)">
<path id="&#232;&#183;&#175;&#229;&#190;&#132;" fill-rule="evenodd" clip-rule="evenodd" d="M12.3569 6.17067L11.5629 12.5806H12.3569L12.045 18.4929L17.8311 17.4522L18.881 9.33522L16.3309 7.0823L12.3569 6.17067Z" fill="#C1C1C1"/>
</g>
</g>
</g>
<g id="Group 842">
<g id="Group 840">
<path id="&#232;&#183;&#175;&#229;&#190;&#132;_2" d="M6.56515 11.1716C6.70064 12.275 7.41845 13.423 8.52157 13.2876C12.2655 12.8279 11.7395 10.422 11.689 9.64275C11.96 11.8496 13.6361 12.6596 16.4441 12.3148C17.2798 12.2122 17.6221 10.5789 17.5296 9.82529C17.414 8.88336 14.92 8.74565 11.8112 9.12736C8.70233 9.50907 6.3958 9.79228 6.56515 11.1716Z" fill="#ACACAC" stroke="#ACACAC" stroke-width="0.8" stroke-linecap="round" stroke-linejoin="round"/>
<path id="&#232;&#183;&#175;&#229;&#190;&#132;_3" d="M13.4809 11.7949C12.4685 11.4125 12.0654 10.3982 11.9904 9.93879C11.9904 9.32006 12.6935 9.2357 14.409 9.2357C16.1246 9.2357 17.1652 9.37632 17.2495 9.8263C17.3339 10.6138 17.0527 11.7949 16.659 11.9918C16.2652 12.1887 14.7465 12.2731 13.4809 11.7949Z" fill="#C1C1C1" stroke="#C1C1C1" stroke-width="0.112838"/>
<path id="&#232;&#183;&#175;&#229;&#190;&#132;_4" d="M10.5031 12.3225C11.3156 11.787 11.7375 10.7544 11.4844 9.8826C11.3402 9.38604 10.5487 9.50782 9.0657 9.74198C7.74388 9.95068 6.73143 10.5294 6.84393 11.0357C6.90015 11.8651 7.53999 12.7411 7.91263 12.8918C8.28527 13.0426 9.48755 12.9918 10.5031 12.3225Z" fill="#C1C1C1" stroke="#C1C1C1" stroke-width="0.112838"/>
</g>
<path id="&#232;&#183;&#175;&#229;&#190;&#132;_5" d="M17.6918 7.25217L18.1867 8.58957L19.5241 9.08444L18.1867 9.57931L17.6918 10.9167L17.197 9.57931L15.8596 9.08444L17.197 8.58957L17.6918 7.25217Z" fill="white"/>
<g id="Group 841">
<path id="&#232;&#183;&#175;&#229;&#190;&#132;_6" d="M12.259 16.0078C13.6055 15.8979 14.6156 14.8109 14.5152 13.5798L9.63904 13.9776C9.73948 15.2087 10.9125 16.1177 12.259 16.0078Z" fill="white" stroke="#ACACAC" stroke-width="0.2" stroke-linejoin="round"/>
<path id="&#232;&#183;&#175;&#229;&#190;&#132;_7" d="M12.8904 14.683H14.2259" stroke="#ACACAC" stroke-width="0.2" stroke-linecap="round" stroke-linejoin="round"/>
</g>
</g>
</g>
</g>
</g>
</g>
</svg>
